<svg width="24" height="24" viewBox="0 0 24 24" fill="none" xmlns="http://www.w3.org/2000/svg">
<path d="M8.53964 22.4812C8.88092 22.3344 9.11996 21.995 9.11996 21.6V19.008C9.11996 18.9134 9.12764 18.815 9.13964 18.7152C9.13292 18.7171 9.12668 18.7185 9.11996 18.72C9.11996 18.72 7.67996 18.72 7.39196 18.72C6.67196 18.72 6.04796 18.432 5.75996 17.856C5.42396 17.232 5.27996 16.176 4.41596 15.6C4.27196 15.504 4.36796 15.36 4.65596 15.36C4.94396 15.408 5.56796 15.792 5.95196 16.32C6.38396 16.848 6.81596 17.28 7.58396 17.28C8.77772 17.28 9.41756 17.22 9.80252 17.0136C10.2508 16.3468 10.8715 15.84 11.52 15.84V15.828C8.79932 15.7406 7.06124 14.8363 6.25196 13.44C4.49276 13.4601 2.96108 13.6344 2.087 13.7793C2.05916 13.6224 2.03516 13.4644 2.01452 13.3056C2.87708 13.1635 4.33916 12.995 6.02012 12.9628C5.96636 12.8304 5.9198 12.6945 5.88044 12.5553C4.19516 12.4699 2.74076 12.5366 1.95068 12.6019C1.94108 12.4425 1.92812 12.2836 1.9262 12.1224C2.71772 12.0576 4.13276 11.9928 5.77484 12.0691C5.73692 11.8291 5.71244 11.5838 5.71244 11.3284C5.71244 10.5124 6.00044 9.64844 6.52844 8.92844C6.28844 8.11244 5.95244 6.38444 6.62444 5.76044C7.92044 5.76044 8.83244 6.38444 9.26444 6.76844C10.08 6.43196 10.992 6.23996 12 6.23996C13.008 6.23996 13.92 6.43196 14.688 6.76796C15.12 6.38396 16.032 5.75996 17.328 5.75996C18.048 6.43196 17.664 8.15996 17.424 8.92796C17.952 9.64796 18.24 10.464 18.192 11.328C18.192 11.5603 18.1704 11.7844 18.1392 12.0043C19.8187 11.9217 21.2721 11.988 22.0771 12.0532C22.0761 12.215 22.0612 12.3729 22.0526 12.5328C21.2505 12.4665 19.7606 12.3984 18.0403 12.49C17.9976 12.6513 17.9457 12.8083 17.8843 12.9604C19.5864 12.9825 21.0835 13.1472 21.9873 13.2912C21.9667 13.4505 21.9427 13.6084 21.9148 13.7649C20.9971 13.618 19.4328 13.4462 17.6529 13.4376C16.8537 14.819 15.1473 15.72 12.48 15.8251V15.84C13.728 15.84 14.88 17.712 14.88 19.008V21.6C14.88 21.995 15.119 22.3344 15.4603 22.4812C19.8576 21.0259 23.04 16.8787 23.04 12C23.04 5.9126 18.0878 0.959961 12 0.959961C5.91212 0.959961 0.959961 5.9126 0.959961 12C0.959961 16.8787 4.14236 21.0259 8.53964 22.4812Z" fill="black"/>
</svg>
