<svg width="24" height="24" viewBox="0 0 24 24" fill="none" xmlns="http://www.w3.org/2000/svg">
<g clip-path="url(#clip0_1197:10418)">
<path d="M12.0002 15.9189L8.08139 12L12.0002 8.08114V0L0.808246 11.192C0.593993 11.4063 0.473633 11.697 0.473633 12C0.473633 12.303 0.593993 12.5937 0.808246 12.808L12.0002 24C12.0002 24 13.7145 22.8571 13.7145 20C13.6259 18.4838 13.0209 17.0436 12.0002 15.9189Z" fill="#2684FF"/>
<path d="M8.69373 11.2383L8.76858 11.3131L12.0006 8.08114V0L5.94287 6.05714C6.39836 7.99226 7.34591 9.77694 8.69373 11.2383Z" fill="#1D78F2"/>
<path d="M9.52037 10.4486L9.57751 10.5057L12.0015 8.08171V0L6.93408 5.06629C7.25183 7.07452 8.15095 8.94568 9.52037 10.4486Z" fill="#126AE5"/>
<path d="M12.0005 8.08114V0L8.00049 4C8.08806 6.12298 8.93367 8.14425 10.3839 9.69714L12.0005 8.08114Z" fill="#0B60DA"/>
<path d="M9.14308 4C9.14308 6.712 11.0899 8.78343 11.1916 8.88914L12.0002 8.08114V0L9.24479 2.75543C9.17644 3.16675 9.14242 3.58304 9.14308 4Z" fill="#0154CE"/>
<path d="M12.0004 8.08114L15.9187 12L12.0004 15.9189V24L23.1918 12.808C23.4061 12.5937 23.5265 12.303 23.5265 12C23.5265 11.697 23.4061 11.4063 23.1918 11.192L12.0004 0C12.0004 0 10.2861 1.14286 10.2861 4C10.3748 5.51621 10.9798 6.95641 12.0004 8.08114Z" fill="#2482FD"/>
<path d="M15.3068 12.7619L15.2319 12.687L12.0005 15.919V24.0002L18.0576 17.943C17.6021 16.0079 16.6546 14.2232 15.3068 12.7619Z" fill="#1D78F2"/>
<path d="M14.4796 13.5513L14.4225 13.4941L11.999 15.9181V23.9999L17.0653 18.9336C16.7475 16.9255 15.8486 15.0544 14.4796 13.5513Z" fill="#126AE5"/>
<path d="M12.0005 15.9187V23.9999L16.0005 19.9999C15.9128 17.8768 15.067 15.8555 13.6165 14.3027L12.0005 15.9187Z" fill="#0B60DA"/>
<path d="M14.8576 20C14.8576 17.288 12.9108 15.2166 12.8085 15.1108L12.0005 15.9188V24L14.7559 21.2446C14.824 20.8332 14.858 20.4169 14.8576 20Z" fill="#0154CE"/>
<path d="M12.0001 15.9189L8.08121 12H1.71436V13.7143L12.0001 24C12.0001 24 13.7144 22.8571 13.7144 20C13.6257 18.4838 13.0207 17.0436 12.0001 15.9189Z" fill="#2684FF"/>
</g>
<defs>
<clipPath id="clip0_1197:10418">
<rect width="24" height="24" fill="white"/>
</clipPath>
</defs>
</svg>
