<svg width="24" height="24" viewBox="0 0 24 24" fill="none" xmlns="http://www.w3.org/2000/svg">
<path d="M18 16.35L17.5 19.5C17.5 20.6 14.95 21.5 12 21.5C9.05 21.5 6.5 20.6 6.5 19.5L6 16.35C5.95 16.15 6.15 15.95 6.4 16.05C7.9 16.7 10 17 12 17C14 17 16.1 16.7 17.6 16.05C17.8 15.95 18.05 16.15 18 16.35ZM20.5 5C20.5 5.1 20.5 5.15 20.45 5.25L19 13.5C19 14.9 15.9 16 12.05 16C8.2 16 5 14.9 5 13.5L3.55 5.25C3.5 5.15 3.5 5.1 3.5 5C3.5 3.6 7.3 2.5 12 2.5C16.7 2.5 20.5 3.6 20.5 5ZM14.5 11.5C14.5 10.1 13.4 9 12 9C10.6 9 9.5 10.1 9.5 11.5C9.5 12.9 10.6 14 12 14C13.4 14 14.5 12.9 14.5 11.5ZM17.9 5C17.9 4.15 15.25 3.5 12 3.5C8.75 3.5 6.1 4.15 6.1 5C6.1 5.85 8.75 6.5 12 6.5C15.25 6.5 17.9 5.85 17.9 5ZM12 12.5C12.55 12.5 13 12.05 13 11.5C13 10.95 12.55 10.5 12 10.5C11.45 10.5 11 10.95 11 11.5C11 12.05 11.45 12.5 12 12.5Z" fill="#2196F3"/>
</svg>
