<svg width="18" height="18" viewBox="0 0 18 18" fill="none" xmlns="http://www.w3.org/2000/svg">
<path d="M3 0C1.34325 0 0 1.34325 0 3V15C0 16.6568 1.34325 18 3 18H15C16.6568 18 18 16.6568 18 15V3C18 1.34325 16.6568 0 15 0H3ZM9.00073 3.375C12.5156 3.375 15.375 5.66736 15.375 8.48511C15.375 9.61273 14.9323 10.6289 14.0076 11.6294H14.0083C12.6707 13.1504 9.67952 15.0029 8.99927 15.2856C8.31939 15.5688 8.42 15.1048 8.44775 14.9458C8.46425 14.8513 8.53857 14.4067 8.53857 14.4067C8.55995 14.2459 8.58257 13.9966 8.51807 13.8376C8.44644 13.6629 8.16405 13.5713 7.9563 13.5271C4.89292 13.127 2.625 11.0111 2.625 8.48511C2.625 5.66736 5.48548 3.375 9.00073 3.375ZM5.23828 6.99829C5.05378 6.99829 4.9043 7.14674 4.9043 7.32861V9.8313C4.9043 10.0139 5.05378 10.1616 5.23828 10.1616H6.50464C6.68914 10.1616 6.83862 10.0132 6.83862 9.83057C6.83862 9.64907 6.68876 9.50098 6.50464 9.50098H5.57227V7.32861C5.57227 7.14636 5.42278 6.99829 5.23828 6.99829ZM7.48022 6.99829C7.29572 6.99829 7.14624 7.14674 7.14624 7.32861V9.8313C7.14624 10.0139 7.29572 10.1616 7.48022 10.1616C7.66472 10.1616 7.81494 10.0132 7.81494 9.8313V7.32861C7.81494 7.14674 7.66435 6.99829 7.48022 6.99829ZM8.63013 6.99829C8.59413 6.99829 8.55843 7.00351 8.52393 7.01514C8.38743 7.06014 8.29468 7.18649 8.29468 7.32861V9.8313C8.29468 10.0139 8.44527 10.1616 8.62939 10.1616C8.81427 10.1616 8.96411 10.0132 8.96411 9.8313V8.28296L10.262 10.0291C10.3246 10.1116 10.4247 10.1616 10.5293 10.1616C10.5649 10.1616 10.601 10.1557 10.6355 10.144C10.7727 10.0994 10.864 9.9738 10.864 9.8313V7.32861C10.864 7.14674 10.7142 6.99829 10.53 6.99829C10.3455 6.99829 10.1953 7.14674 10.1953 7.32861V8.87695L8.89673 7.13086C8.8341 7.04836 8.73438 6.99829 8.63013 6.99829ZM11.647 6.99902C11.4625 6.99902 11.313 7.14747 11.313 7.32935V7.33081V8.58032V8.58105V9.8313C11.313 10.0139 11.4632 10.1616 11.647 10.1616H12.9133C13.0978 10.1616 13.248 10.0132 13.248 9.8313C13.248 9.64942 13.0975 9.50171 12.9133 9.50171H11.981V8.91064H12.9133C13.0982 8.91064 13.248 8.7622 13.248 8.58032C13.248 8.3977 13.0975 8.25 12.9133 8.25V8.25073H11.981V7.65967H12.9133C13.0982 7.65967 13.248 7.51122 13.248 7.32935C13.248 7.14747 13.0975 6.99902 12.9133 6.99902H11.647Z" fill="#282828"/>
</svg>
