<svg width="41" height="41" viewBox="0 0 41 41" fill="none" xmlns="http://www.w3.org/2000/svg">
<path d="M41 2L2 41V2H41Z" fill="#3082FE"/>
<path d="M15.7031 22.4807L14.8368 23.347L6.51069 21.6009L11.5467 26.637L10.6805 27.5033L4.14527 20.9681L5.01154 20.1018L13.3691 21.8613L8.31056 16.8027L9.16786 15.9455L15.7031 22.4807ZM19.2086 19.1547C18.5502 19.813 17.7992 20.1332 16.9553 20.1152C16.1085 20.0943 15.323 19.7218 14.5989 18.9976L14.4463 18.845C13.9645 18.3632 13.6264 17.8426 13.4319 17.283C13.2374 16.7175 13.1985 16.1639 13.3152 15.6223C13.4319 15.0747 13.6833 14.6079 14.0693 14.2219C14.7006 13.5905 15.3993 13.3077 16.1654 13.3736C16.9314 13.4394 17.7019 13.8598 18.4769 14.6348L18.8225 14.9804L15.5325 18.2705C16.0232 18.7373 16.5499 18.9856 17.1124 19.0156C17.675 19.0395 18.1627 18.845 18.5757 18.4321C18.8689 18.1388 19.0574 17.8306 19.1412 17.5074C19.225 17.1843 19.2445 16.8476 19.1996 16.4975L20.1018 16.3853C20.3202 17.4177 20.0225 18.3408 19.2086 19.1547ZM14.7515 14.9041C14.4164 15.2393 14.2578 15.6432 14.2757 16.116C14.2907 16.5858 14.4912 17.0676 14.8772 17.5613L17.3099 15.1285L17.2471 15.0657C16.8012 14.6677 16.3614 14.4553 15.9275 14.4283C15.4906 14.3984 15.0986 14.557 14.7515 14.9041ZM25.1333 10.7613L22.355 6.11568L23.1853 5.28532L26.628 11.5557L25.9547 12.229L21.0937 9.72891L23.6252 14.5585L22.9519 15.2318L16.686 11.7846L17.5119 10.9588L22.1036 13.6384L19.599 8.87161L20.2678 8.20283L25.1333 10.7613Z" fill="white"/>
</svg>
